HIERARCHY
ROOT joint_Root
{
	OFFSET 0.0 0.0 0.0
	CHANNELS 6 Xposition Yposition Zposition Zrotation Xrotation Yrotation 
	JOINT Hips
	{
		OFFSET -0.726466 93.3139 -2.00062
		CHANNELS 6 Xposition Yposition Zposition Zrotation Xrotation Yrotation 
		JOINT Spine
		{
			OFFSET 15.7357 0.0 0.0
			CHANNELS 6 Xposition Yposition Zposition Zrotation Xrotation Yrotation 
			JOINT Chest
			{
				OFFSET 8.98455 -0.406207 0.0
				CHANNELS 6 Xposition Yposition Zposition Zrotation Xrotation Yrotation 
				JOINT Neck
				{
					OFFSET 16.3773 0.0 0.0
					CHANNELS 6 Xposition Yposition Zposition Zrotation Xrotation Yrotation 
					JOINT Head
					{
						OFFSET 6.45672 0.0 0.0
						CHANNELS 6 Xposition Yposition Zposition Zrotation Xrotation Yrotation 
						End Site
						{
							OFFSET 0.0 0.0 0.0
						}
					}
				}
				JOINT Shoulder_L
				{
					OFFSET 12.9942 -0.242716 4.98039
					CHANNELS 6 Xposition Yposition Zposition Zrotation Xrotation Yrotation 
					JOINT UpperArm_L
					{
						OFFSET 5.34809 0.0 0.0
						CHANNELS 6 Xposition Yposition Zposition Zrotation Xrotation Yrotation 
						JOINT LowerArm_L
						{
							OFFSET 24.3286 1.87007e-05 0.0
							CHANNELS 6 Xposition Yposition Zposition Zrotation Xrotation Yrotation 
							JOINT Hand_L
							{
								OFFSET 22.2916 0.0 0.0
								CHANNELS 6 Xposition Yposition Zposition Zrotation Xrotation Yrotation 
								End Site
								{
									OFFSET 0.0 0.0 0.0
								}
							}
						}
					}
				}
				JOINT Shoulder_R
				{
					OFFSET 12.9945 -0.242716 -4.98039
					CHANNELS 6 Xposition Yposition Zposition Zrotation Xrotation Yrotation 
					JOINT UpperArm_R
					{
						OFFSET -5.34813 0.0 0.0
						CHANNELS 6 Xposition Yposition Zposition Zrotation Xrotation Yrotation 
						JOINT LowerArm_R
						{
							OFFSET -24.3289 0.000322201 0.0
							CHANNELS 6 Xposition Yposition Zposition Zrotation Xrotation Yrotation 
							JOINT Hand_R
							{
								OFFSET -22.2915 -0.000108084 0.0
								CHANNELS 6 Xposition Yposition Zposition Zrotation Xrotation Yrotation 
								End Site
								{
									OFFSET 0.0 0.0 0.0
								}
							}
						}
					}
				}
			}
		}
		JOINT UpperLeg_L
		{
			OFFSET -2.19248 -6.46944 0.0
			CHANNELS 6 Xposition Yposition Zposition Zrotation Xrotation Yrotation 
			JOINT LowerLeg_L
			{
				OFFSET 39.0811 0.0 -1.23785e-05
				CHANNELS 6 Xposition Yposition Zposition Zrotation Xrotation Yrotation 
				JOINT Foot_L
				{
					OFFSET 40.9854 0.0 -1.26872e-05
					CHANNELS 6 Xposition Yposition Zposition Zrotation Xrotation Yrotation 
					JOINT Toes_L
					{
						OFFSET 11.7543 0.0 0.0
						CHANNELS 6 Xposition Yposition Zposition Zrotation Xrotation Yrotation 
						End Site
						{
							OFFSET 0.0 0.0 0.0
						}
					}
				}
			}
		}
		JOINT UpperLeg_R
		{
			OFFSET -2.19251 6.46944 0.0
			CHANNELS 6 Xposition Yposition Zposition Zrotation Xrotation Yrotation 
			JOINT LowerLeg_R
			{
				OFFSET -39.0811 -0.00228153 -0.0401928
				CHANNELS 6 Xposition Yposition Zposition Zrotation Xrotation Yrotation 
				JOINT Foot_R
				{
					OFFSET -40.9854 0.0 0.0
					CHANNELS 6 Xposition Yposition Zposition Zrotation Xrotation Yrotation 
					JOINT Toes_R
					{
						OFFSET -11.7543 0.0 0.0
						CHANNELS 6 Xposition Yposition Zposition Zrotation Xrotation Yrotation 
						End Site
						{
							OFFSET 0.0 0.0 0.0
						}
					}
				}
			}
		}
	}
}
MOTION
Frames:	5
Frame Time:	0.0333333
0.000000 0.000000 0.000000 0.000000 0.000000 -0.000000 93.987400 88.862500 176.294000 -73.371000 68.691800 173.369000 15.735700 0.000005 -0.000001 82.440400 81.880000 -81.979200 8.984550 -0.406207 -0.000000 8.345810 -2.124320 1.076730 16.377300 -0.000001 -0.000001 10.710900 12.724400 -5.036930 6.456720 -0.000001 -0.000000 1.665220 23.844300 -1.404380 12.994200 -0.242716 4.980390 -88.083600 -4.577810 -67.255000 5.348090 -0.000007 -0.000001 -64.477800 31.746000 -18.927400 24.328600 0.000019 0.000005 4.974940 3.765970 -52.964600 22.291600 -0.000001 0.000005 7.994610 5.565770 -9.473370 12.994500 -0.242716 -4.980390 89.188700 1.921390 -67.104200 -5.348130 -0.000001 -0.000004 -67.078900 33.655800 -3.516230 -24.328900 0.000322 -0.000009 5.577570 10.673900 -27.804600 -22.291500 -0.000108 -0.000004 1.125120 5.523220 -7.499500 -2.192480 -6.469440 -0.000000 177.883000 -13.435600 -10.206400 39.081100 -0.000007 -0.000012 -0.274113 0.340541 38.832300 40.985400 -0.000006 -0.000013 7.606570 -10.449500 -71.978200 11.754300 -0.000000 0.000003 -0.000034 -0.000399 -16.593100 -2.192510 6.469440 -0.000001 174.346000 6.728410 168.841000 -39.081100 -0.002282 -0.040193 0.058951 -0.028664 62.797300 -40.985400 0.000008 0.000006 0.418313 -3.470970 -52.364000 -11.754300 -0.000006 -0.000006 -0.023375 -0.185314 -24.151300
0.000000 0.000000 0.000000 0.000000 0.000000 -0.000000 96.049000 89.444900 175.027000 -73.881900 65.359800 173.960000 15.735700 0.000005 -0.000001 78.800000 81.859200 -77.944700 8.984550 -0.406207 -0.000000 8.238990 -3.144730 1.935780 16.377300 -0.000001 -0.000001 10.451100 12.155700 -4.753980 6.456720 -0.000001 -0.000000 1.755630 23.870600 -1.517110 12.994200 -0.242716 4.980390 -88.024100 -4.862400 -67.852700 5.348090 -0.000007 -0.000001 -62.492400 32.259300 -21.660500 24.328600 0.000019 0.000005 4.750770 3.274140 -55.502800 22.291600 -0.000001 0.000005 8.395740 5.569200 -9.647300 12.994500 -0.242716 -4.980390 89.135000 1.959660 -66.177300 -5.348130 -0.000001 -0.000004 -67.000300 31.668900 -1.575080 -24.328900 0.000322 -0.000009 5.325130 10.376400 -27.366400 -22.291500 -0.000108 -0.000004 1.173810 5.520110 -7.366520 -2.192480 -6.469440 -0.000000 178.486000 -11.358100 -6.920100 39.081100 -0.000007 -0.000012 -0.275674 0.378470 36.069700 40.985400 -0.000006 -0.000013 7.884400 -9.086040 -72.349000 11.754300 -0.000000 0.000003 -0.000035 -0.000410 -16.593500 -2.192510 6.469440 -0.000001 175.535000 5.372070 167.699000 -39.081100 -0.002282 -0.040193 0.026252 -0.015834 55.486900 -40.985400 0.000008 0.000006 -0.125253 -3.878380 -54.948500 -11.754300 -0.000006 -0.000006 -0.022807 -0.182368 -24.029700
0.000000 0.000000 0.000000 0.000000 0.000000 -0.000000 97.940200 89.786800 173.899000 -74.788800 62.052200 174.693000 15.735700 0.000005 -0.000001 75.310100 81.843300 -74.185300 8.984550 -0.406207 -0.000000 8.071380 -4.116020 2.538630 16.377300 -0.000001 -0.000001 10.140500 11.607900 -4.432170 6.456720 -0.000001 -0.000000 1.570810 23.787600 -1.442450 12.994200 -0.242716 4.980390 -87.962300 -5.137510 -68.329900 5.348090 -0.000007 -0.000001 -60.382900 32.583800 -24.397300 24.328600 0.000019 0.000005 4.741300 3.078920 -57.073000 22.291600 -0.000001 0.000005 8.525230 5.570950 -9.736930 12.994500 -0.242716 -4.980390 89.055800 2.057180 -65.339700 -5.348130 -0.000001 -0.000004 -66.442400 30.432200 -0.223632 -24.328900 0.000322 -0.000009 5.233060 10.285700 -27.159900 -22.291500 -0.000108 -0.000004 1.192890 5.517040 -7.236230 -2.192480 -6.469440 -0.000000 178.754000 -8.867120 -4.426870 39.081100 -0.000007 -0.000012 -0.280978 0.416781 33.986900 40.985400 -0.000006 -0.000013 7.980150 -8.175030 -72.815000 11.754300 -0.000000 0.000003 -0.000028 -0.000341 -16.590900 -2.192510 6.469440 -0.000001 176.218000 3.976710 166.572000 -39.081100 -0.002282 -0.040193 0.009909 -0.006184 47.083000 -40.985400 0.000008 0.000006 -0.454783 -5.098370 -55.783600 -11.754300 -0.000006 -0.000006 -0.021192 -0.173806 -23.676400
0.000000 0.000000 0.000000 0.000000 0.000000 -0.000000 99.771800 89.955900 172.853000 -75.899900 59.032100 175.186000 15.735700 0.000005 -0.000001 72.484100 81.938900 -71.221600 8.984550 -0.406207 -0.000000 7.683880 -4.833930 2.848360 16.377300 -0.000001 -0.000001 9.672070 11.135100 -3.982990 6.456720 -0.000001 -0.000000 1.435160 23.611000 -1.231900 12.994200 -0.242716 4.980390 -87.899600 -5.410100 -68.744600 5.348090 -0.000007 -0.000001 -58.255300 32.775500 -26.971200 24.328600 0.000019 0.000005 4.841000 3.055660 -57.813300 22.291600 -0.000001 0.000005 8.347040 5.572810 -9.832950 12.994500 -0.242716 -4.980390 88.971000 2.167980 -64.601600 -5.348130 -0.000001 -0.000004 -65.711400 29.898800 0.701096 -24.328900 0.000322 -0.000009 5.231600 10.335400 -27.042500 -22.291500 -0.000108 -0.000004 1.264760 5.516000 -7.192310 -2.192480 -6.469440 -0.000000 178.781000 -6.651890 -2.673200 39.081100 -0.000007 -0.000012 -0.274327 0.433060 32.353200 40.985400 -0.000006 -0.000013 8.034490 -7.291440 -73.423000 11.754300 -0.000000 0.000003 -0.000031 -0.000373 -16.592100 -2.192510 6.469440 -0.000001 176.421000 2.363740 165.255000 -39.081100 -0.002282 -0.040193 0.005316 -0.002576 38.276400 -40.985400 0.000008 0.000006 0.058651 -5.698490 -55.828900 -11.754300 -0.000006 -0.000006 -0.022038 -0.178328 -23.862900
0.000000 0.000000 0.000000 0.000000 0.000000 -0.000000 101.577000 89.936300 171.814000 -77.377500 56.305500 175.901000 15.735700 0.000005 -0.000001 70.208600 82.034600 -68.961100 8.984550 -0.406207 -0.000000 7.308260 -5.379480 2.837510 16.377300 -0.000001 -0.000001 9.202070 10.767400 -3.583290 6.456720 -0.000001 -0.000000 1.123170 23.417700 -0.887888 12.994200 -0.242716 4.980390 -87.892500 -5.508320 -69.024300 5.348090 -0.000007 -0.000001 -56.067800 32.904900 -29.172700 24.328600 0.000019 0.000005 5.000490 3.134590 -57.996400 22.291600 -0.000001 0.000005 8.287220 5.570210 -9.699170 12.994500 -0.242716 -4.980390 88.871500 2.317640 -64.028100 -5.348130 -0.000001 -0.000004 -64.883900 29.803200 1.229880 -24.328900 0.000322 -0.000009 5.238010 10.376600 -26.980000 -22.291500 -0.000108 -0.000004 1.224480 5.515000 -7.150280 -2.192480 -6.469440 -0.000000 178.516000 -4.637300 -1.281710 39.081100 -0.000007 -0.000012 -0.279603 0.460993 31.238300 40.985400 -0.000006 -0.000013 8.012270 -6.588120 -74.248600 11.754300 -0.000000 0.000003 -0.000051 -0.000573 -16.599800 -2.192510 6.469440 -0.000001 176.203000 1.833930 164.012000 -39.081100 -0.002282 -0.040193 0.006051 -0.004832 29.626500 -40.985400 0.000008 0.000006 0.463722 -4.875050 -56.889500 -11.754300 -0.000006 -0.000006 -0.021308 -0.174429 -23.702100
